<?xml version="1.0" encoding="UTF-8"?>
<svg width="82px" height="80px" viewBox="0 0 82 80" version="1.1" xmlns="http://www.w3.org/2000/svg" xmlns:xlink="http://www.w3.org/1999/xlink">
    <title>Group</title>
    <defs>
        <circle id="path-1" cx="40" cy="40" r="40"></circle>
    </defs>
    <g id="Page-1" stroke="none" stroke-width="1" fill="none" fill-rule="evenodd">
        <g id="个人中心-收藏语法" transform="translate(-61.000000, -89.000000)">
            <g id="编组-4" transform="translate(16.000000, 65.000000)">
                <g id="Group" transform="translate(45.000000, 24.000000)">
                    <g id="编组">
                        <mask id="mask-2" fill="white">
                            <use xlink:href="#path-1"></use>
                        </mask>
                        <use id="椭圆形" fill="#FFFFFF" xlink:href="#path-1"></use>
                    </g>
                    <g id="飞鹰,鹰" transform="translate(2.000000, 0.000000)" fill-rule="nonzero">
                        <rect id="Rectangle" fill="#E69900" opacity="0" x="0" y="0" width="80" height="80"></rect>
                        <path d="M47.3150828,5.23523146 C34.8471259,1.89439414 22.1532313,5.52836353 13.3756675,13.7449023 L18.9274128,16.6703554 C26.1771857,10.7531389 36.0689246,8.2854284 45.7991072,10.8926721 C61.8753128,15.2003548 71.4147627,31.7231324 67.1071607,47.7992593 C62.7995588,63.8753862 46.2768634,73.4148371 30.2006577,69.1072347 C21.1867075,66.6919295 17.9834746,58.5655727 24.8338582,52.8016337 C29.4284032,48.9352163 37.819679,48.2824811 43.0185727,49.181489 C48.9701896,50.2099027 53.3175778,52.3760417 52.8215762,55.9052004 C55.8046587,54.2840925 58.987476,49.8302054 58.1539748,46.1378025 C57.413308,42.8568455 53.6050835,39.9676421 51.1135015,37.9712577 C48.8714073,32.2325568 35.9645962,25.7769001 22.0889304,18.8397897 L22.0889304,18.8397897 L22.0889304,18.8397897 C20.8933343,18.2420319 19.6905847,17.6408177 18.4868707,17.0360672 C18.4942653,17.0297978 18.5018207,17.0236089 18.5092957,17.0173395 L12.9252392,14.1744329 C8.40881979,18.5512392 4.98133728,24.1681702 3.23524459,30.6847521 C-1.90931485,49.884379 9.48521796,69.6201957 28.6847625,74.7647556 C47.8843874,79.9093156 67.620202,68.5147816 72.7647614,49.3151547 C77.9093209,30.1155278 66.5147077,10.3797914 47.3150828,5.23523146 Z M44.5705569,36.6973751 C39.9067276,40.781612 33.7180009,36.0184372 32.3380218,29.8828386 C36.5924952,31.8326851 40.8200424,33.9263248 44.5705569,36.6973751 Z" id="Shape" fill="#003399"></path>
                    </g>
                </g>
            </g>
        </g>
    </g>
</svg>